# WaveFront *.obj file (generated by Autodesk ATF)

mtllib Pyramid.mtl

g Solid1

v -2.886751 0.000000 -0.000000
v 1.443376 0.000000 -2.500000
v 1.443376 0.000000 2.500000
v 0.000000 3.000000 0.000000
vt 0.000000 -288.675135 0.000000
vt 250.000000 144.337567 0.000000
vt -250.000000 144.337567 0.000000
vt -500.000000 -0.000000 0.000000
vt 0.000000 -0.000000 0.000000
vt -250.000000 332.916406 0.000000
vt -500.000000 0.000000 0.000000
vt -0.000000 0.000000 0.000000
vt -250.000000 332.916406 0.000000
vt -500.000000 -0.000000 0.000000
vt -0.000000 0.000000 0.000000
vt -250.000000 332.916406 0.000000
vn 0.000000 -100.000000 0.000000
vn 0.000000 -100.000000 0.000000
vn 0.000000 -100.000000 0.000000
vn -45.056356 43.355498 -78.039897
vn -45.056356 43.355498 -78.039897
vn -45.056356 43.355498 -78.039897
vn 90.112711 43.355498 0.000000
vn 90.112711 43.355498 0.000000
vn 90.112711 43.355498 0.000000
vn -45.056356 43.355498 78.039897
vn -45.056356 43.355498 78.039897
vn -45.056356 43.355498 78.039897
usemtl 191,191,191
f 1/1/1 2/2/2 3/3/3
f 2/4/4 1/5/5 4/6/6
f 3/7/7 2/8/8 4/9/9
f 1/10/10 3/11/11 4/12/12

# 4 vertices
# 12 texture params
# 12 normals
# 4 facets

# 1 groups
